{"title":"Lost Girl S01E01 XviD (ENG+NL SUBS) RHoek 2Lions-Team","uid":5863436,"size":366798620,"categoryP":"video","categoryS":"tv_shows","magnet":"?xt=urn:btih:cff8ab9c921c01cc93410f4428302a6dd643de2f&amp;dn=Lost+Girl+S01E01+XviD+%28ENG%2BNL+SUBS%29+RHoek+2Lions-Team&amp;tr=udp%3A%2F%2Ftracker.openbittorrent.com%3A80&amp;tr=udp%3A%2F%2Fopen.demonii.com%3A1337&amp;tr=udp%3A%2F%2Ftracker.coppersurfer.tk%3A6969&amp;tr=udp%3A%2F%2Fexodus.desync.com%3A6969","seeders":0,"leechers":1,"uploader":"RHoek-2lions","files":-1,"time":1286055544,"description":"FOR ENGLISH, PLEASE SCROLL DOWN!\n\n\n~~~~~~~~~~~~~~~~~~~~~~~~~~~~~~~~~~~~~~~~~~~~~~~~~~~~~~~~~\nLost Girl - Seizoen 1\n\nVERHAALLIJN:\nÃ‚Â¯Ã‚Â¯Ã‚Â¯Ã‚Â¯Ã‚Â¯Ã‚Â¯Ã‚Â¯Ã‚Â¯Ã‚Â¯Ã‚Â¯Ã‚Â¯Ã‚Â¯\nLost Girl richt zich rondom de beeldschone en charismatische Bo, een bovennatuurlijk wezen genoemt een \\'succubus\\' die zich voedt met de energie van mensen, soms met fatale afloop. Weigerend om haar bovennatuurlijke clan te omarmen en zijn starre hiÃƒÂ«rarchie, is Bo een afvallige die de strijd opneemt voor de underdog terwijl ze op zoek gaat naar de waarheid over haar mysterieuze afkomst.\n~~~~~~~~~~~~~~~~~~~~~~~~~~~~~~~~~~~~~~~~~~~~~~~~~~~~~~~~~\nOndertitelingen: Engels &amp; Nederlands - custom (eventueel selecteren via je mediaspeler)\nMenu: Nee.\nCovers: Nee.\nGenre : Drama | Fantasy.\n\nIMDb: http://www.imdb.com/title/tt1429449/\nOfficiÃƒÂ«le website: http://lostgirlseries.com/\n\n~~~~~~~~~~~~~~~~~~~~~~~~~~~~~~~~~~~~~~~~~~~~~~~~~~~~~~~~~\nLost Girl - Season 1\n\nPLOT:\nÃ‚Â¯Ã‚Â¯Ã‚Â¯Ã‚Â¯Ã‚Â¯\nLost Girl focuses on the gorgeous and charismatic Bo, a supernatural being called a succubus who feeds on the energy of humans, sometimes with fatal results. Refusing to embrace her supernatural clan and its rigid hierarchy, Bo is a renegade who takes up the fight for the underdog while searching for the truth about her own mysterious origins.\n\n~~~~~~~~~~~~~~~~~~~~~~~~~~~~~~~~~~~~~~~~~~~~~~~~~~~~~~~~~\nSubtiteles: English and Dutch - custom (eventueel selecteren via je mediaspeler)\nMenu: No\nCovers: No.\nGenre : Drama | Fantasy.\n\nIMDb: http://www.imdb.com/title/tt1429449/\nOfficial website: http://lostgirlseries.com/\n~~~~~~~~~~~~~~~~~~~~~~~~~~~~~~~~~~~~~~~~~~~~~~~~~~~~~~~~~\nVIDEO AND AUDIO INFORMATION\nÃ‚Â¯Ã‚Â¯Ã‚Â¯Ã‚Â¯Ã‚Â¯Ã‚Â¯Ã‚Â¯Ã‚Â¯Ã‚Â¯Ã‚Â¯Ã‚Â¯Ã‚Â¯Ã‚Â¯Ã‚Â¯Ã‚Â¯Ã‚Â¯Ã‚Â¯Ã‚Â¯Ã‚Â¯Ã‚Â¯Ã‚Â¯Ã‚Â¯Ã‚Â¯Ã‚Â¯Ã‚Â¯Ã‚Â¯Ã‚Â¯Ã‚Â¯Ã‚Â¯Ã‚Â¯\nFormat                           : AVI\nFormat/Info                      : Audio Video Interleave\nFile size                        : 350 MiB\nDuration                         : 43mn 11s\nOverall bit rate                 : 1 132 Kbps\nWriting application              : MEncoder dev-SVN-r26940\nWriting library                  : MPlayer\n\nVideo\nID                               : 0\nFormat                           : MPEG-4 Visual\nFormat profile                   : Advanced Simple@L5\nFormat settings, BVOP            : Yes\nFormat settings, QPel            : No\nFormat settings, GMC             : No warppoints\nFormat settings, Matrix          : Default (H.263)\nMuxing mode                      : Packed bitstream\nCodec ID                         : XVID\nCodec ID/Hint                    : XviD\nDuration                         : 43mn 11s\nBit rate                         : 991 Kbps\nWidth                            : 624 pixels\nHeight                           : 352 pixels\nDisplay aspect ratio             : 16:9\nFrame rate                       : 23.976 fps\nColor space                      : YUV\nChroma subsampling               : 4:2:0\nBit depth                        : 8 bits\nScan type                        : Progressive\nBits/(Pixel*Frame)               : 0.188\nStream size                      : 306 MiB (88%)\nWriting library                  : XviD 1.2.1 (UTC 2008-12-04)\n\nAudio\nID                               : 1\nFormat                           : MPEG Audio\nFormat version                   : Version 1\nFormat profile                   : Layer 3\nMode                             : Joint stereo\nMode extension                   : MS Stereo\nCodec ID                         : 55\nCodec ID/Hint                    : MP3\nDuration                         : 43mn 11s\nBit rate mode                    : Variable\nBit rate                         : 128 Kbps\nChannel(s)                       : 2 channels\nSampling rate                    : 48.0 KHz\nStream size                      : 39.5 MiB (11%)\nAlignment                        : Aligned on interleaves\nInterleave, duration             : 24 ms (0.58 video frame)\nInterleave, preload duration     : 528 ms\n\n\n*****************************************\n\nBrought to you by\n2Lions Team\n\nMeer zien??\nKom dan eens kijken op ons forum\n &lt;a href=&quot;\nhttp://www.2lions-site.nl&quot; rel=&quot;nofollow&quot; target=&quot;_NEW&quot;&gt;\nhttp://www.2lions-site.nl&lt;/a&gt;\n\n2Lions the site to be for all your Dutch MOVIES and more\n\n******************************************","torrent":{"xt":"urn:btih:cff8ab9c921c01cc93410f4428302a6dd643de2f","amp;dn":"Lost+Girl+S01E01+XviD+%28ENG%2BNL+SUBS%29+RHoek+2Lions-Team","amp;tr":["udp%3A%2F%2Ftracker.openbittorrent.com%3A80","udp%3A%2F%2Fopen.demonii.com%3A1337","udp%3A%2F%2Ftracker.coppersurfer.tk%3A6969","udp%3A%2F%2Fexodus.desync.com%3A6969"],"infoHash":"cff8ab9c921c01cc93410f4428302a6dd643de2f","infoHashBuffer":{"type":"Buffer","data":[207,248,171,156,146,28,1,204,147,65,15,68,40,48,42,109,214,67,222,47]},"announce":[],"urlList":[]}}